<svg xmlns="http://www.w3.org/2000/svg" viewBox="0 0 490.56 490.56">
  <path fill="#fff" d="M393.291 337.96c-42.1 0-76.3 34.2-76.3 76.3s34.2 76.3 76.3 76.3c42.1 0 76.3-34.2 76.3-76.3 0-42.1-34.1-76.3-76.3-76.3zm31.1 66.9l-33.6 33.4c-1.9 1.9-4.5 3-7.3 3-2.7 0-5.3-1.1-7.3-3l-14-14.1c-4-4-4-10.6 0-14.6s10.6-4 14.6 0l6.8 6.8 26.3-26.1c4-4 10.6-4 14.6 0 3.9 4.1 3.9 10.6-.1 14.6z"/>
  <path fill="#fff" d="M376.391 299.96c-3.5-2.1-7.4-3.7-11.9-4.9-47.6-12.1-86.3-39.4-86.3-39.4l-30.2 95.6-5.7 18-.1-.2-5 15.2-15.9-45.2c39.1-54.6-7.9-54.1-10.5-54-2.6-.1-49.7-.6-10.5 54l-16 45.1-5-15.2-.1.2-5.7-18-30.2-95.5s-38.7 27.2-86.3 39.4c-35.4 9.1-37.1 50-35.7 70.3 0 0 2.1 27.5 4.1 39.6 0 0 69.3 45 185.4 45.1 31 0 58.6-3.2 82.5-8-2.5-8.9-3.8-18.2-3.8-27.8 0-50.7 36.5-93 84.6-102 6-1.1 7.6-9.2 2.3-12.3z"/>
  <path fill="#fff" d="M299.291 127.26c1.5-4.2 2.6-8.4 3.4-12.6 13.2-79.4-25.9-82.2-25.9-82.2s-6.5-12.5-23.6-21.9c-11.4-6.8-27.4-12-48.4-10.2-6.8.3-13.2 1.6-19.3 3.7-7.7 2.6-14.8 6.4-21.2 10.9-7.9 5-15.3 11.1-21.8 18-10.4 10.6-19.6 24.3-23.6 41.4-3.3 12.8-2.6 26.1.2 40.4.8 4.2 1.9 8.4 3.4 12.6-7.9-.8-17.1 3.7-8.4 34.4 6.3 22.4 12.2 28.7 16.7 29.1 4.1 26.7 24.7 60.6 58.5 72.5 13.9 4.9 29.1 4.9 42.9-.1 33.3-12 54.5-45.8 58.7-72.4 4.5-.4 10.4-6.6 16.7-29.1 8.7-30.7-.5-35.2-8.3-34.5z"/>
</svg>
