<svg xmlns="http://www.w3.org/2000/svg" viewBox="0 0 949.012 949.011">
  <g fill="#fff">
    <path d="M627.012 649.312c-13.3-24.2-20-51.6-20-81.3 0-25.9 4.8-50 14.4-71.7 9.7-21.9 24.1-41.5 43.1-58 12.3-10.8 26.5-19.6 42.4-26.5v-5.6c0-29.2 23.7-52.9 52.9-52.9h9.9c-26-178.8-179.9-316.1-365.902-316.1v314.8c0 30.4-24.6 55-55 55H34.01c0 204.2 165.5 369.8 369.8 369.8 95 0 181.7-35.9 247.2-94.8-9.298-9.7-17.4-20.6-23.998-32.7z"/>
    <path d="M368.51 342.41V34.01c0-17.5-15-31.4-32.5-29.9-178.3 15.5-320.4 157.6-335.9 335.9-1.5 17.5 12.4 32.5 29.9 32.5h308.4c16.6-.1 30.1-13.5 30.1-30.1zM911.712 662.812c-11.9-11.9-27.1-22-45.3-30-16.9-7.5-35.3-11.1-53-14.7-26.6-5.3-51.7-10.4-65.4-27-5.8-7-8.6-15.8-8.6-27v-1.8c.3-10.4 3.7-18.9 10.5-26.5l.9-.9c9.1-9.5 24.2-15.4 39.8-15.4 15 0 28.2 5.2 36.3 14.3 6 6.7 10.3 17.9 12.5 32.3 1.4 9.5 9.6 16.3 19 16.3.9 0 1.9-.1 2.9-.2l61.7-9.198c10.398-1.6 17.6-11.2 16.2-21.7-5.302-37.6-21.4-67.8-47.9-89.8-13.6-11.3-30.5-20-49.7-25.6v-29.9c0-10.6-8.6-19.2-19.2-19.2H759.81c-10.6 0-19.2 8.6-19.2 19.2v29.4c-21 5.9-39.4 15.5-53.9 28.1-30.5 26.7-46 61.8-46 104.4 0 24 5.3 45.9 15.9 65.1 5.1 9.3 11.2 17.7 18.4 25.1 8 8.3 17.3 15.5 27.8 21.3 28.2 15.7 55.4 22.6 85.5 29.5 19.9 4.5 41.8 11 53.1 24.8 5.3 6.5 7.9 15.9 7.9 28.2 0 15.2-4.2 27.4-12.9 37.3-8.1 9.2-19.9 15.4-33.3 17.4-3.2.5-6.5.7-9.7.7-19 0-36.6-8-47.1-21.5-4.9-6.2-11.5-19.5-15.6-47.4-1.4-9.6-9.602-16.5-19-16.5-1.102 0-2.2.1-3.302.3l-60.4 10.5c-9.7 1.7-16.6 10.5-15.9 20.3 2.102 29.802 10 55.602 23.5 76.9 13.602 21.5 30.4 37.5 49.8 47.5 11 5.7 22.7 10.2 35 13.6v24.802c0 10.6 8.602 19.2 19.2 19.2h62.5c10.602 0 19.2-8.6 19.2-19.2v-24.2c26.8-7.4 50.1-21.1 68.1-39.9 26.302-27.6 39.602-62.3 39.602-103.1 0-18.6-3.2-36.3-9.6-52.6-6.1-16.504-15.5-31.004-27.7-43.204z"/>
  </g>
</svg>
