<svg xmlns="http://www.w3.org/2000/svg" viewBox="0 0 490.6 490.6">
  <path fill="#fff" d="M476 205.05l-45.6-7.9c-4.4-17.2-11.3-33.7-20.5-49.3l26.8-37.6c5-7 4.2-16.5-1.9-22.6l-16.2-16.2-16.2-16.1c-6.1-5.5-15.6-6.3-22.5-1.4l-37.6 26.9c-15.6-9.2-32.1-16-49.3-20.4l-7.8-45.6c-1.5-8.5-8.8-14.6-17.2-14.6h-45.5c-8.5 0-15.7 6.1-17.2 14.6l-7.7 45.7c-17.5 4.4-34.4 11.4-50.3 21.2l-37.4-26.5c-7-5-16.5-4.2-22.6 1.9l-16.1 16L55 89.35c-6 6-6.8 15.6-1.9 22.6l27 38c-9.2 15.6-15.7 32.4-20.1 49.3l-45.4 7.2c-8.5 1.5-14.6 8.8-14.6 17.2v22.8l.2 22.8c0 8.5 6.1 15.7 14.6 17.2l45.9 7.7c4.5 17.1 11.4 33.5 20.7 49l-26.5 37.4c-5 7-4.2 16.5 1.9 22.6l16.2 16.2 16.2 16.2c6 6 15.6 6.8 22.6 1.9l38-27c15.6 9.2 32.4 15.7 49.3 20.1l7.6 45.2c1.5 8.5 8.8 14.6 17.2 14.6h45.6c8.5 0 15.7-6.1 17.2-14.6l7.7-45.9c16.6-4.4 33-11.1 48-20l37.6 26.8c7 5 16.5 4.2 22.6-1.9l16.2-16.2 16.2-16.2c6-6 6.8-15.6 1.9-22.6l-26.9-37.6c9.2-15.6 16-32.1 20.4-49.3l45.6-7.8c8.5-1.5 14.6-8.8 14.6-17.2v-45.6c0-8.5-6.1-15.7-14.6-17.2zm-229.6 161.6c-67.1 0-121.5-54.5-121.5-121.5 0-30.3 11.4-59.4 31.6-81.7l27.4 18.9c-16.7 16.6-26.2 39.2-26.2 62.8 0 48.9 39.8 88.8 88.8 88.8 48.9 0 88.8-39.8 88.8-88.8 0-48.6-39.2-88.1-87.6-88.7v19.7c0 2.1-2.3 3.3-4.1 2.1l-52.8-36.1c-1.5-1-1.5-3.3 0-4.3l52.7-36.2c1.7-1.2 4.1 0 4.1 2.1v19.9c66.5.6 120.4 54.8 120.4 121.5 0 67-54.5 121.5-121.6 121.5z"/>
</svg>
