<svg xmlns="http://www.w3.org/2000/svg" width="128" height="55">
  <defs>
    <style>
      .cls-1 { fill-rule: evenodd; filter: url(#filter); }
    </style>
    <filter id="filter" width="128" height="55" x="0" y="0" filterUnits="userSpaceOnUse">
      <feFlood result="flood" flood-color="#fbc43e"/>
      <feComposite result="composite" operator="in" in2="SourceGraphic"/>
      <feBlend result="blend" in2="SourceGraphic"/>
    </filter>
  </defs>
  <path id="Фигура_1" d="M38.708 2.7v3.727h-10.92V2.675L28.54 0h.752l.741 2.7h8.676zm12.037 0v3.727h-10.92V2.7l.752-2.7.762.011.741 2.689h8.665zm12.08 0v3.727H51.9V2.675L52.645 0l.762.011.742 2.689h8.676zm12.026 0v3.727h-10.91V2.664L64.682 0l.762.011.741 2.689h8.665zm12.079 0v3.727H76.021V2.664L76.761 0l.762.011.742 2.689h8.665zm12.08 0v3.727H88.057V2.664L88.8 0h.75v.022l.74 2.678h8.719zm1.128 3.731V2.664q.386-1.332.773-2.664l.762.022q.354 1.353.709 2.707a10.71 10.71 0 0 1 2.1.2l1.332.216a27.068 27.068 0 0 1 3.833 1.132c.523.209 1.021.429 1.514.647l.623.3-1.836 3.2a24.441 24.441 0 0 0-4.564-1.575c-.751-.184-1.547-.226-2.362-.356a20.19 20.19 0 0 0-2.885-.066zM26.629 2.707v3.71a18.972 18.972 0 0 0-7.484 1.51l-1.345.614-.655.345-1.823-3.17-.522-2.783a2.969 2.969 0 0 1 .7-.3L17.33 4.7a22.407 22.407 0 0 1 9.299-1.993zm88.218 1.165l.644.388-.8 2.707a13.665 13.665 0 0 1 1.863 1.433 20.832 20.832 0 0 1 3.618 3.785c.361.479.715.958 1.053 1.467a1.712 1.712 0 0 1 .354.572l-2.33 1.337a3.655 3.655 0 0 1-.837.453L118 15.4c-.385-.548-.788-1.057-1.192-1.575a19.414 19.414 0 0 0-5.852-4.875l1.825-3.181zm-100.5 2.4l1.836 3.192-.537.345c-.5.334-.962.687-1.428 1.046a18.864 18.864 0 0 0-3.833 4c-.278.392-.555.78-.816 1.2l-.247.4a1.321 1.321 0 0 1-.365-.2l-.838-.485-1.956-1.125-1.836-2.124.011-.032.4-.593 2.674.863.322-.431c.344-.458.721-.874 1.074-1.316a10.155 10.155 0 0 1 1.46-1.531l.591-.572c.6-.483 1.159-1.009 1.782-1.467l1.149-.809zm31.437 17.939c.032.538.19 1.061.2 1.639a1.671 1.671 0 0 0-.73 2.987 1.343 1.343 0 0 0 .73.3c0 .582-.17 1.108-.2 1.65a1.669 1.669 0 0 0-.859 3.181 7.7 7.7 0 0 1-.633 1.531 1.671 1.671 0 0 0-2.266 1.715 2.011 2.011 0 0 0 .623 1.143l-.279.388a4.662 4.662 0 0 1-.719.917 3.054 3.054 0 0 0-.859-.324 1.385 1.385 0 0 0-.73.119A1.67 1.67 0 0 0 39.331 42l-.923.744-.376.27-.022-.011a1.654 1.654 0 0 0-2.953 1.122c.032.2.094.375.118.55-.408.124-.8.343-1.213.507a.821.821 0 0 1-.311.108 1.657 1.657 0 0 0-3.168.874c-.537.022-1.058.191-1.632.2a1.647 1.647 0 0 0-1.063-1.337 1.666 1.666 0 0 0-2.223 1.337h-.117l-1.514-.2A1.671 1.671 0 0 0 22.9 44.4a1.654 1.654 0 0 0-2.148.917l-1.17-.464-.354-.162v-.012a1.684 1.684 0 0 0-.945-2.2 1.666 1.666 0 0 0-1.9.55h-.008c-.292-.259-.638-.487-.945-.723a.858.858 0 0 1-.344-.313 1.661 1.661 0 0 0-1.1-2.642 1.6 1.6 0 0 0-1.063.2l-.172.129-.064-.054-.73-.96c-.083-.116-.245-.23-.161-.356a1.66 1.66 0 0 0-1.707-2.8 10.2 10.2 0 0 1-.633-1.531 1.667 1.667 0 0 0-.376-3.192l-.48-.009c-.021-.533-.173-1.062-.2-1.628a1.637 1.637 0 0 0 1.385-1.175A1.666 1.666 0 0 0 8.4 25.85a8.523 8.523 0 0 1 .215-1.65 1.271 1.271 0 0 0 .6-.032 1.656 1.656 0 0 0 1.235-2.027 1.737 1.737 0 0 0-.676-.971L9.46 21l.34-.887.279-.625A2.3 2.3 0 0 0 11 19.6a1.679 1.679 0 0 0 1.3-2.232 2.5 2.5 0 0 0-.548-.744 6.841 6.841 0 0 1 .644-.863l.354-.442a2.4 2.4 0 0 0 .827.334 1.673 1.673 0 0 0 1.793-2.092 2.17 2.17 0 0 0-.29-.582 7.707 7.707 0 0 1 1.3-1 2.087 2.087 0 0 0 1.1.636 1.669 1.669 0 0 0 1.761-2.286l.376-.173a5.568 5.568 0 0 1 1.149-.464 1.66 1.66 0 0 0 3.178-.863c.525-.029 1.056-.181 1.622-.212A1.664 1.664 0 0 0 27.8 9.954a1.641 1.641 0 0 0 1.052-1.337c.564.045 1.108.135 1.632.216a1.659 1.659 0 0 0 3.178.852c.4.17.808.327 1.192.5l.322.151a1.968 1.968 0 0 0-.086.96 1.669 1.669 0 0 0 1.976 1.294 2.285 2.285 0 0 0 .966-.6c.458.309.86.68 1.3 1a2.366 2.366 0 0 0-.29.615 1.668 1.668 0 0 0 1.611 2.06 1.6 1.6 0 0 0 1-.334l.032.022.977 1.283-.011.022a1.658 1.658 0 0 0 1.649 2.829 10.311 10.311 0 0 1 .623 1.542 1.665 1.665 0 0 0 .861 3.182zM26.865 12.283l-.537.022-1.127.108a16.826 16.826 0 0 0-2.985.712 15.519 15.519 0 0 0-7.316 5.489c-.412.58-.761 1.2-1.127 1.833a15.3 15.3 0 0 0-.923 2.168 16.594 16.594 0 0 0-.655 2.8c-.078.4-.04.808-.107 1.24a5.568 5.568 0 0 0-.008 1.445l.075 1.132a21.551 21.551 0 0 0 .5 2.48 14.952 14.952 0 0 0 8.687 9.8 17.175 17.175 0 0 0 3.017.928c.44.1.88.1 1.353.183a9.1 9.1 0 0 0 1.46.075h.548l1.181-.086a21.031 21.031 0 0 0 2.5-.5 15.07 15.07 0 0 0 9.8-8.8 18.788 18.788 0 0 0 1.031-3.915l.107-1.326v-.442a7.046 7.046 0 0 0-.064-1.661l-.175-1.283a17.584 17.584 0 0 0-.859-2.9 15.081 15.081 0 0 0-11.274-9.253 14.617 14.617 0 0 0-3.102-.249zm.161 1.5a13.261 13.261 0 0 1 8.225 2.577c.41.294.781.635 1.17.949l.5.485-3.608 3.624-.193-.194-.32-.292-.773-.593a8.765 8.765 0 0 0-2.577-1.186 9.2 9.2 0 0 0-4.778.1 8.567 8.567 0 0 0-5.616 5.468 9.291 9.291 0 0 0-.387 1.693l-.064.852.032.884c.051.331.042.623.107.927a9.909 9.909 0 0 0 .558 1.812 8.416 8.416 0 0 0 5.422 4.875 8.558 8.558 0 0 0 3.908.259 9.2 9.2 0 0 0 3.629-1.531c.382-.274.687-.635 1.052-.917l3.613 3.625-.494.464c-.432.349-.836.717-1.3 1.046a13.656 13.656 0 0 1-4.574 2.114c-.507.13-1.013.181-1.568.28a11.5 11.5 0 0 1-3.522 0 19.314 19.314 0 0 1-2.255-.5 13.543 13.543 0 0 1-8.955-8.962 20.911 20.911 0 0 1-.537-2.394l-.086-1.154a4.242 4.242 0 0 1 0-1.186l.075-1.068a19.787 19.787 0 0 1 .526-2.459 13.65 13.65 0 0 1 8.16-8.7 16.409 16.409 0 0 1 2.974-.766l1.084-.108zm98.343 13.265h-2.684a4.673 4.673 0 0 1-.934-.022q-.048-.82-.1-1.639c-.174-1.045-.264-2.04-.5-2.987a24.047 24.047 0 0 0-1.278-3.721l-.58-1.186-.268-.5 3.135-1.823 2.759-.55.333.669-.107.108-1.954 1.79a24.4 24.4 0 0 1 2.178 9.86zM6.26 26.918H2.631L0 25.99l.043-.755 2.738-.572a12.057 12.057 0 0 1 .376-2.319 24.192 24.192 0 0 1 .762-2.869c.256-.661.476-1.327.752-1.963.282-.653.619-1.274.923-1.9l3.146 1.826-.365.723c-.257.585-.523 1.171-.762 1.779a19.993 19.993 0 0 0-1.353 6.978zm42.649-9.663h15.483v20.49h-4.563q-.005-8.336-.011-16.673l-6.217.011v16.662h-4.692v-20.49zm23.042 0h5.068l6.228 20.49h-4.778l-1.149-4.13-5.809.011-1.138 4.12h-4.66zm12.574 0h5.712a18.053 18.053 0 0 1 3.618.173 6.052 6.052 0 0 1 3.565 1.952 6.434 6.434 0 0 1 1.149 2.383c.118.439.111.919.193 1.413v.809l-.032.69a12.211 12.211 0 0 1-.269 1.413 6.553 6.553 0 0 1-5.046 4.788 18.623 18.623 0 0 1-4.059.172v6.7h-4.831V17.255zm14.893 0H114.9v3.818h-5.551v16.672h-4.52V21.073h-5.412v-3.818zm-72.466 3.02a7.085 7.085 0 0 1 6.9 4.486 7.485 7.485 0 0 1-.011 5.532 7.136 7.136 0 0 1-4.617 4.141 11.518 11.518 0 0 1-1.643.28l-.759-.014-.722-.061a8.17 8.17 0 0 1-1.664-.485 7.272 7.272 0 0 1-4.349-7.721 8.325 8.325 0 0 1 .354-1.4 7.27 7.27 0 0 1 4.392-4.357 7.921 7.921 0 0 1 1.385-.334zm-.054.582l-.655.065a8.025 8.025 0 0 0-1.342.345 6.679 6.679 0 0 0-3.919 3.979 7.562 7.562 0 0 0-.311 1.219 6.417 6.417 0 0 0 .2 2.912 6.5 6.5 0 0 0 3.78 4.238 8.194 8.194 0 0 0 1.7.474l.687.043h.58a11.816 11.816 0 0 0 1.568-.291 6.542 6.542 0 0 0 4.123-3.764 6.875 6.875 0 0 0-.011-5.155 6.521 6.521 0 0 0-6.398-4.065zm62.459.086v6.287c2.171.02 3.72-.091 4.381-1.607a5.625 5.625 0 0 0 .258-1.38 3.2 3.2 0 0 0-.054-1.111 2.907 2.907 0 0 0-.537-1.122c-.749-.953-2.345-1.069-4.049-1.067zM27 21.439a8.683 8.683 0 0 1 .966.054 1.57 1.57 0 0 0 .011 1.186.869.869 0 0 0 1.17.129 1.657 1.657 0 0 0 .365-.917 7.715 7.715 0 0 1 1.374.8l-.451.453a1.373 1.373 0 0 0-.161.378.823.823 0 0 0 .977.9 1.556 1.556 0 0 0 .749-.589l.043.032.29.421a6.5 6.5 0 0 1 .472.949l-.3.086a1 1 0 0 0-.741.474.74.74 0 0 0 .569 1.014 2.266 2.266 0 0 0 .848-.172 11.436 11.436 0 0 1 .011 1.618 1.631 1.631 0 0 0-1.181.011.88.88 0 0 0-.129 1.175 1.624 1.624 0 0 0 .913.367 4.92 4.92 0 0 1-.795 1.38 2.6 2.6 0 0 0-.687-.582.825.825 0 0 0-1.041.906 2.062 2.062 0 0 0 .591.809h-.025a4.27 4.27 0 0 1-1.385.8l-.011-.011c-.066-.476-.26-1.193-.87-1.078a.968.968 0 0 0-.429.151 1.23 1.23 0 0 0-.075 1.316l-.5.054a5.544 5.544 0 0 1-1.117-.043c.217-.678.229-1.289-.462-1.477a.813.813 0 0 0-.569.054 1.44 1.44 0 0 0-.5 1.014 5.749 5.749 0 0 1-1.374-.776 2.1 2.1 0 0 1 .454-.49.868.868 0 0 0 .15-.572.817.817 0 0 0-1.05-.663 1.762 1.762 0 0 0-.676.572l-.024-.016-.215-.3a3.53 3.53 0 0 1-.569-1.111 1.064 1.064 0 0 0 1.1-.766.756.756 0 0 0-.075-.356c-.233-.579-.849-.475-1.4-.259a8.906 8.906 0 0 1-.011-1.628h.043c.642.21 1.253.169 1.428-.464a.839.839 0 0 0-.054-.582 1.438 1.438 0 0 0-1.009-.507 4.616 4.616 0 0 1 .784-1.38l.075.076c.214.1.309.373.537.474a.82.82 0 0 0 1.127-.625.876.876 0 0 0-.365-.809.364.364 0 0 1-.193-.28 5.715 5.715 0 0 1 1.374-.755c.06.644.513 1.457 1.267.96a1.123 1.123 0 0 0 .107-1.326V21.5zm-1.288.291a.344.344 0 0 1 .139.669.348.348 0 0 1-.343-.561.571.571 0 0 1 .208-.108zm2.9 0a.344.344 0 0 1 .14.669c-.419.114-.615-.464-.137-.669zm45.798 1.327L72.542 29.8H76.3v-.035zm-51.217.129a.343.343 0 1 1-.215.14.515.515 0 0 1 .215-.14zm7.913 0a.342.342 0 1 1-.236.172.479.479 0 0 1 .236-.172zm-9.374 2.524a.342.342 0 0 1 .14.669c-.425.088-.531-.472-.14-.669zm10.8 0a.342.342 0 1 1-.225.183.458.458 0 0 1 .227-.183zm-29.9 2.373H6.26a11.391 11.391 0 0 0 .172 2.157c.112.6.14 1.165.279 1.726A26.391 26.391 0 0 0 7.72 35.34l.655 1.5.365.722L5.583 39.4l-2.749.485-.322-.669 2.1-1.855c-.246-.661-.538-1.326-.757-2.021a26.216 26.216 0 0 1-1.224-7.258zm119.109.14h3.651l2.608.938a3.33 3.33 0 0 1-.075.755l-2.727.55q-.049.361-.1.723c-.108.554-.162 1.094-.29 1.607-.158.634-.265 1.236-.451 1.833a33.033 33.033 0 0 1-1.321 3.5q-.327.653-.655 1.3-.166.3-.332.593l-3.147-1.823.462-.852a15.663 15.663 0 0 0 .816-1.769 20.224 20.224 0 0 0 1.56-7.355zm-99.975.388a.342.342 0 0 1 .075.679.348.348 0 0 1-.3-.55.494.494 0 0 1 .224-.129zm10.8 0a.343.343 0 1 1-.247.172.48.48 0 0 1 .247-.172zm-9.385 2.523a.343.343 0 1 1-.225.173.482.482 0 0 1 .226-.173zm7.914 0a.342.342 0 1 1-.215.151.51.51 0 0 1 .22-.151zm-5.411 1.456a.342.342 0 1 1-.215.162.512.512 0 0 1 .215-.162zm2.9 0a.342.342 0 0 1 .14.669.345.345 0 0 1-.344-.528.526.526 0 0 1 .203-.141zM9.288 38.543a5.967 5.967 0 0 1 .569.874c.447.639.919 1.249 1.4 1.855l.859.938a6.909 6.909 0 0 0 1.02 1l.859.766a23.56 23.56 0 0 0 2.19 1.564l-.011.032-1.8 3.138-1.106.928-.816.69a.467.467 0 0 1-.258.183L11.6 50.1l.9-2.642-1.063-.852c-.419-.333-.769-.755-1.181-1.089A7.41 7.41 0 0 1 9.2 44.464c-.623-.775-1.307-1.5-1.89-2.319l-.81-1.208-.344-.561.011-.022zm109.012.626l3.135 1.812 1.783 2.189-.419.615-1.954-.69a1.48 1.48 0 0 0-.73-.216l-.29.367c-.329.43-.718.8-1.052 1.219a6.751 6.751 0 0 1-.977 1l-1 .938c-.7.56-1.384 1.114-2.126 1.639-.463.328-.944.624-1.439.928a1.78 1.78 0 0 1-.58.323q-.906-1.585-1.814-3.171l.923-.539c.592-.371 1.168-.77 1.718-1.186a19.934 19.934 0 0 0 4.822-5.228zm-91.671 9.414V52.3l-.891 2.653a3.227 3.227 0 0 1-.752-.065l-.44-1.963a3.083 3.083 0 0 0-.183-.755l-1.5-.2c-.99-.21-1.948-.383-2.856-.669a29.518 29.518 0 0 1-3.071-1.165l-1.611-.82 1.836-3.192.859.442 1.525.669a19.252 19.252 0 0 0 7.084 1.348zm73.508 3.717v-3.727a21.39 21.39 0 0 0 7.462-1.046c.585-.209 1.144-.423 1.686-.658a3.207 3.207 0 0 1 .547-.216q.918 1.591 1.836 3.181.07.485.14.971.123.911.247 1.823l-.4.162a.54.54 0 0 1-.312.108l-1.739-2.157a24 24 0 0 1-9.467 1.559zm-72.349-3.727h10.92v3.742L37.957 55H37.2l-.741-2.7h-8.671v-3.727zm12.037 0l10.92.011v3.731L49.993 55h-.751l-.742-2.7h-8.675v-3.727zm12.08 0l10.92.011v3.731L62.073 55h-.752l-.741-2.7H51.9v-3.727zm12.036 0H74.85v3.775L74.109 55h-.751v-.022l-.741-2.678h-8.676v-3.727zm12.08 0H86.93v3.775L86.189 55h-.752v-.022L84.7 52.3h-8.679v-3.727zm12.037 0h10.951v3.775L98.268 55h-.751v-.022l-.741-2.678h-8.719v-3.727z" data-name="Фигура 1" class="cls-1"/>
</svg>
