<svg xmlns="http://www.w3.org/2000/svg" width="37" height="47">
  <defs>
    <style>
      .cls-1 { fill: #1b1b1b; } .cls-1, .cls-2 { fill-rule: evenodd; } .cls-2 { fill: #fbc43e; }
    </style>
  </defs>
  <path id="marker" d="M27.328 35.6L19 47h-1L9.672 35.6C4.469 32.379 0 24.695 0 18.2A18.352 18.352 0 0 1 18.5 0 18.352 18.352 0 0 1 37 18.2c0 6.495-4.469 14.179-9.672 17.4z" class="cls-1"/>
  <path id="logo" d="M33.834 15.805c.027.441.157.872.168 1.346a1.37 1.37 0 0 0-.6 2.453 1.109 1.109 0 0 0 .6.248c0 .478-.14.91-.168 1.355a1.37 1.37 0 0 0-.708 2.612 6.3 6.3 0 0 1-.523 1.257 1.376 1.376 0 0 0-1.868 1.408 1.65 1.65 0 0 0 .514.939l-.23.319a3.831 3.831 0 0 1-.593.753 2.524 2.524 0 0 0-.708-.266 1.146 1.146 0 0 0-.6.1 1.369 1.369 0 0 0-.6 2.09l-.762.611-.31.221-.018-.009a1.365 1.365 0 0 0-2.435.921c.027.165.077.308.1.452-.336.1-.662.282-1 .416a.68.68 0 0 1-.257.089 1.367 1.367 0 0 0-2.612.717c-.442.018-.872.157-1.346.168a1.353 1.353 0 0 0-.877-1.1A1.374 1.374 0 0 0 17.16 34h-.1l-1.248-.168a1.368 1.368 0 0 0-2.621-.7l-.965-.381-.292-.133v-.006a1.366 1.366 0 0 0-2.347-1.355H9.58c-.241-.212-.526-.4-.779-.593a.707.707 0 0 1-.283-.257 1.374 1.374 0 0 0 .186-1.3 1.393 1.393 0 0 0-1.089-.868 1.321 1.321 0 0 0-.877.168l-.138.105-.053-.044-.6-.788c-.068-.1-.2-.189-.133-.292a1.364 1.364 0 0 0-1.408-2.3 8.351 8.351 0 0 1-.522-1.257 1.385 1.385 0 0 0 .638-2.01 1.4 1.4 0 0 0-.947-.611l-.4-.009c-.023-.441-.149-.875-.175-1.34a1.348 1.348 0 0 0 1.143-.961A1.368 1.368 0 0 0 3 17.151a6.967 6.967 0 0 1 .178-1.351 1.054 1.054 0 0 0 .5-.027 1.36 1.36 0 0 0 1.018-1.665 1.427 1.427 0 0 0-.558-.8l-.257-.142.283-.726.23-.514a1.908 1.908 0 0 0 .753.089 1.378 1.378 0 0 0 1.071-1.833 2.054 2.054 0 0 0-.452-.611 5.617 5.617 0 0 1 .531-.708l.29-.363a1.987 1.987 0 0 0 .682.275 1.376 1.376 0 0 0 1.479-1.719 1.779 1.779 0 0 0-.239-.478 6.352 6.352 0 0 1 1.071-.823 1.722 1.722 0 0 0 .9.522A1.372 1.372 0 0 0 11.935 4.4l.31-.142a4.6 4.6 0 0 1 .947-.381 1.369 1.369 0 0 0 2.621-.708c.441-.017.877-.143 1.346-.168A1.372 1.372 0 0 0 19 4.1a1.349 1.349 0 0 0 .869-1.1c.465.037.914.111 1.346.177a1.365 1.365 0 0 0 .8 1.426 1.381 1.381 0 0 0 1.824-.726c.329.139.666.269.983.407l.266.124a1.61 1.61 0 0 0-.071.788 1.376 1.376 0 0 0 1.626 1.064 1.886 1.886 0 0 0 .8-.5c.377.254.709.558 1.072.824a1.936 1.936 0 0 0-.239.5A1.371 1.371 0 0 0 29.6 8.783a1.321 1.321 0 0 0 .823-.274l.027.018.807 1.053-.009.02a1.362 1.362 0 0 0 1.364 2.329 8.452 8.452 0 0 1 .514 1.266 1.367 1.367 0 0 0 .708 2.61zm-15.6-9.794l-.443.018-.93.089A13.927 13.927 0 0 0 14.4 6.7a12.792 12.792 0 0 0-6.03 4.507c-.34.476-.628.988-.93 1.505a12.537 12.537 0 0 0-.762 1.78 13.564 13.564 0 0 0-.54 2.3c-.064.332-.033.663-.089 1.018A4.551 4.551 0 0 0 6.038 19l.062.932a17.625 17.625 0 0 0 .416 2.037 12.3 12.3 0 0 0 7.164 8.049 14.21 14.21 0 0 0 2.488.762c.363.08.725.085 1.116.151a7.522 7.522 0 0 0 1.2.062h.456l.974-.071a17.405 17.405 0 0 0 2.063-.407 12.409 12.409 0 0 0 8.085-7.226 15.371 15.371 0 0 0 .85-3.214L31 18.984v-.372a5.764 5.764 0 0 0-.053-1.364l-.147-1.053a14.37 14.37 0 0 0-.708-2.382 12.423 12.423 0 0 0-9.3-7.6 12.11 12.11 0 0 0-2.561-.201zm.133 1.231a10.969 10.969 0 0 1 6.783 2.116c.338.241.644.521.965.779l.416.4-2.975 2.975-.159-.159-.266-.239-.638-.487a7.243 7.243 0 0 0-2.125-.974 7.615 7.615 0 0 0-3.94.08 7.051 7.051 0 0 0-4.631 4.49 7.593 7.593 0 0 0-.319 1.39l-.053.7q.013.363.027.726c.042.272.035.512.089.762A8.114 8.114 0 0 0 12 21.286a6.93 6.93 0 0 0 4.472 4 7.085 7.085 0 0 0 3.223.212 7.609 7.609 0 0 0 2.993-1.257c.315-.225.567-.522.868-.753l2.975 2.975-.407.381c-.357.287-.689.589-1.071.859a11.285 11.285 0 0 1-3.772 1.736c-.418.107-.836.148-1.293.23a9.521 9.521 0 0 1-2.9 0 16 16 0 0 1-1.859-.407 11.145 11.145 0 0 1-7.385-7.358 17.092 17.092 0 0 1-.443-1.966l-.071-.948a3.468 3.468 0 0 1 0-.974l.062-.877a16.169 16.169 0 0 1 .434-2.019 11.228 11.228 0 0 1 6.73-7.146A13.589 13.589 0 0 1 17 7.349l.894-.089zm-.067 5.331a5.843 5.843 0 0 1 5.7 3.684 6.121 6.121 0 0 1-.009 4.543 5.876 5.876 0 0 1-3.808 3.4 9.538 9.538 0 0 1-1.355.23l-.628-.009-.6-.053a6.764 6.764 0 0 1-1.372-.4 5.963 5.963 0 0 1-3.586-6.34 6.816 6.816 0 0 1 .292-1.151 5.982 5.982 0 0 1 3.624-3.577 6.544 6.544 0 0 1 1.142-.274zm-.044.478l-.54.053a6.637 6.637 0 0 0-1.107.283 5.5 5.5 0 0 0-3.232 3.268 6.189 6.189 0 0 0-.257 1 5.246 5.246 0 0 0 .168 2.391 5.347 5.347 0 0 0 3.117 3.48 6.78 6.78 0 0 0 1.4.39l.567.035h.478a9.778 9.778 0 0 0 1.293-.239 5.386 5.386 0 0 0 3.4-3.09 5.621 5.621 0 0 0-.009-4.233 5.378 5.378 0 0 0-5.276-3.338zm.088.478a7.167 7.167 0 0 1 .8.044 1.284 1.284 0 0 0 .009.974.719.719 0 0 0 .965.106 1.358 1.358 0 0 0 .3-.753 6.376 6.376 0 0 1 1.133.655l-.372.372a1.122 1.122 0 0 0-.133.31.677.677 0 0 0 .806.735 1.282 1.282 0 0 0 .611-.478l.037.028.239.345a5.32 5.32 0 0 1 .39.779l-.248.071a.823.823 0 0 0-.611.39.608.608 0 0 0 .469.832 1.879 1.879 0 0 0 .7-.142 9.338 9.338 0 0 1 .009 1.328 1.35 1.35 0 0 0-.974.009.72.72 0 0 0-.106.965 1.342 1.342 0 0 0 .753.3 4.036 4.036 0 0 1-.655 1.134 2.141 2.141 0 0 0-.567-.478.679.679 0 0 0-.859.744 1.694 1.694 0 0 0 .487.664h-.019a3.524 3.524 0 0 1-1.142.655l-.009-.009c-.054-.391-.215-.98-.717-.886a.8.8 0 0 0-.354.124 1.007 1.007 0 0 0-.062 1.08l-.416.044a4.583 4.583 0 0 1-.921-.035c.179-.556.189-1.059-.381-1.213a.672.672 0 0 0-.469.044 1.18 1.18 0 0 0-.416.832 4.745 4.745 0 0 1-1.133-.637 1.73 1.73 0 0 1 .381-.4.71.71 0 0 0 .124-.469.674.674 0 0 0-.868-.549 1.452 1.452 0 0 0-.558.469l-.018-.009-.179-.244a2.9 2.9 0 0 1-.469-.912.877.877 0 0 0 .9-.629.618.618 0 0 0-.062-.292c-.192-.476-.7-.39-1.151-.212a7.288 7.288 0 0 1-.009-1.337h.036c.529.172 1.034.139 1.178-.381a.686.686 0 0 0-.044-.478 1.187 1.187 0 0 0-.832-.416 3.789 3.789 0 0 1 .646-1.133l.062.062c.176.085.255.306.443.39a.677.677 0 0 0 .932-.515.718.718 0 0 0-.3-.664.3.3 0 0 1-.159-.23 4.721 4.721 0 0 1 1.133-.62c.05.529.423 1.2 1.045.788a.919.919 0 0 0 .088-1.089v-.009zm-1.063.239a.282.282 0 0 1 .115.549.286.286 0 0 1-.283-.46.47.47 0 0 1 .171-.088zm2.391 0a.282.282 0 0 1 .115.549c-.345.094-.507-.38-.112-.548zm-4.472 1.2a.282.282 0 1 1-.177.115.424.424 0 0 1 .177-.119zm6.526 0a.281.281 0 1 1-.195.142.394.394 0 0 1 .198-.146zM14 17.036a.281.281 0 1 1 .115.549c-.351.073-.44-.385-.115-.549zm8.908 0a.281.281 0 1 1-.186.151.377.377 0 0 1 .185-.151zm-8.881 2.382a.281.281 0 0 1 .062.558.286.286 0 0 1-.248-.452.408.408 0 0 1 .184-.106zm8.908 0a.281.281 0 1 1-.2.142.4.4 0 0 1 .198-.142zm-7.741 2.072a.281.281 0 1 1-.186.142.4.4 0 0 1 .186-.142zm6.526 0a.28.28 0 1 1-.177.124.421.421 0 0 1 .177-.124zm-4.463 1.2a.281.281 0 1 1-.177.133.422.422 0 0 1 .177-.137zm2.391 0a.28.28 0 0 1 .115.549.283.283 0 0 1-.283-.439.433.433 0 0 1 .168-.114z" class="cls-2"/>
</svg>
