<svg xmlns="http://www.w3.org/2000/svg" width="32" height="32">
  <defs>
    <style>
      .cls-1 { fill: #e5e5e5; fill-rule: evenodd; }
    </style>
  </defs>
  <path id="no-image" d="M31.822 13.212c.028.455.162.9.174 1.389a1.414 1.414 0 0 0-.621 2.532 1.145 1.145 0 0 0 .621.256c0 .494-.145.939-.174 1.4a1.414 1.414 0 0 0-.731 2.7 6.5 6.5 0 0 1-.539 1.3 1.421 1.421 0 0 0-1.928 1.453 1.7 1.7 0 0 0 .53.969l-.238.329a3.957 3.957 0 0 1-.612.777 2.6 2.6 0 0 0-.731-.274 1.183 1.183 0 0 0-.621.1 1.413 1.413 0 0 0-.622 2.157l-.786.631-.32.229-.018-.009a1.409 1.409 0 0 0-2.513.95c.027.17.08.318.1.466-.347.105-.683.291-1.033.43a.7.7 0 0 1-.265.091 1.411 1.411 0 0 0-2.7.74c-.457.018-.9.162-1.389.174a1.4 1.4 0 0 0-.9-1.133 1.418 1.418 0 0 0-1.892 1.133h-.1l-1.289-.174a1.411 1.411 0 0 0-2.705-.722l-1-.393-.3-.137v-.016a1.41 1.41 0 0 0-2.422-1.4h-.009c-.248-.219-.543-.413-.8-.612a.73.73 0 0 1-.292-.265 1.419 1.419 0 0 0 .192-1.343 1.438 1.438 0 0 0-1.124-.9 1.363 1.363 0 0 0-.9.174l-.146.11-.055-.046-.621-.813c-.07-.1-.208-.195-.137-.3a1.407 1.407 0 0 0-1.453-2.376 8.622 8.622 0 0 1-.539-1.3 1.43 1.43 0 0 0 .658-2.075 1.45 1.45 0 0 0-.978-.631l-.411-.009C.154 18.327.025 17.878 0 17.4a1.391 1.391 0 0 0 1.179-1A1.412 1.412 0 0 0 0 14.6a7.193 7.193 0 0 1 .183-1.4 1.086 1.086 0 0 0 .512-.027 1.4 1.4 0 0 0 1.051-1.718 1.472 1.472 0 0 0-.576-.823l-.27-.143.3-.75.238-.53a1.968 1.968 0 0 0 .772.091 1.423 1.423 0 0 0 1.106-1.891 2.119 2.119 0 0 0-.466-.631 5.8 5.8 0 0 1 .55-.731l.3-.375a2.051 2.051 0 0 0 .7.283 1.42 1.42 0 0 0 1.53-1.773 1.836 1.836 0 0 0-.247-.494 6.555 6.555 0 0 1 1.106-.85 1.778 1.778 0 0 0 .932.539A1.416 1.416 0 0 0 9.22 1.44l.32-.146A4.749 4.749 0 0 1 10.518.9a1.423 1.423 0 0 0 1.9.74 1.419 1.419 0 0 0 .8-1.471c.461-.017.911-.146 1.395-.169a1.416 1.416 0 0 0 1.9 1.133A1.392 1.392 0 0 0 17.409 0c.48.038.943.114 1.389.183a1.408 1.408 0 0 0 .823 1.471A1.425 1.425 0 0 0 21.5.9c.34.144.688.277 1.015.42l.277.13a1.662 1.662 0 0 0-.073.813A1.42 1.42 0 0 0 24.4 3.36a1.946 1.946 0 0 0 .823-.512c.389.262.732.576 1.106.85a2 2 0 0 0-.247.521 1.415 1.415 0 0 0 1.371 1.746 1.364 1.364 0 0 0 .85-.283l.028.018.832 1.088-.009.018a1.406 1.406 0 0 0 1.407 2.4 8.723 8.723 0 0 1 .53 1.307 1.411 1.411 0 0 0 .731 2.699zM15.718 3.1l-.457.018-.96.091a14.376 14.376 0 0 0-2.541.6 13.2 13.2 0 0 0-6.223 4.66c-.351.491-.648 1.02-.96 1.554a12.932 12.932 0 0 0-.786 1.837 14 14 0 0 0-.558 2.376c-.066.342-.034.685-.091 1.051a4.7 4.7 0 0 0-.009 1.225l.067.96a18.19 18.19 0 0 0 .43 2.1 12.691 12.691 0 0 0 7.394 8.308 14.681 14.681 0 0 0 2.568.786c.375.083.749.088 1.152.155a7.775 7.775 0 0 0 1.243.064h.463l1.005-.073a17.957 17.957 0 0 0 2.13-.42 12.807 12.807 0 0 0 8.344-7.458 15.86 15.86 0 0 0 .877-3.318l.094-1.122v-.384a5.948 5.948 0 0 0-.055-1.408l-.155-1.088a14.842 14.842 0 0 0-.731-2.458 12.823 12.823 0 0 0-9.6-7.842 12.5 12.5 0 0 0-2.641-.214zm.137 1.27a11.321 11.321 0 0 1 7 2.184c.349.249.665.538 1 .8l.43.411-3.071 3.071-.165-.165-.274-.247-.658-.5a7.475 7.475 0 0 0-2.193-1.005 7.859 7.859 0 0 0-4.067.082 7.278 7.278 0 0 0-4.78 4.634 7.848 7.848 0 0 0-.329 1.435l-.058.73.027.75c.043.281.036.528.091.786a8.378 8.378 0 0 0 .475 1.536A7.153 7.153 0 0 0 13.9 23a7.312 7.312 0 0 0 3.327.219 7.852 7.852 0 0 0 3.089-1.3c.325-.232.585-.538.9-.777l3.071 3.071-.42.393c-.368.3-.712.607-1.106.886a11.649 11.649 0 0 1-3.893 1.791c-.431.11-.862.153-1.334.238a9.824 9.824 0 0 1-3 0 16.5 16.5 0 0 1-1.919-.42 11.5 11.5 0 0 1-7.622-7.6 17.64 17.64 0 0 1-.457-2.029l-.077-.972a3.58 3.58 0 0 1 0-1.005l.064-.9a16.7 16.7 0 0 1 .448-2.084 11.589 11.589 0 0 1 6.946-7.376 14.026 14.026 0 0 1 2.532-.649l.923-.091zm-.064 5.5a6.031 6.031 0 0 1 5.877 3.8 6.319 6.319 0 0 1-.009 4.689 6.065 6.065 0 0 1-3.93 3.51 9.838 9.838 0 0 1-1.4.238l-.649-.009-.612-.055a6.984 6.984 0 0 1-1.417-.411 6.154 6.154 0 0 1-3.7-6.544 7.038 7.038 0 0 1 .3-1.188 6.175 6.175 0 0 1 3.738-3.692 6.769 6.769 0 0 1 1.179-.283zm-.046.494l-.557.055a6.856 6.856 0 0 0-1.142.293 5.673 5.673 0 0 0-3.336 3.378 6.383 6.383 0 0 0-.265 1.033 5.414 5.414 0 0 0 .174 2.468 5.519 5.519 0 0 0 3.217 3.592 7 7 0 0 0 1.444.4l.585.037h.494a10.073 10.073 0 0 0 1.334-.247 5.559 5.559 0 0 0 3.51-3.19 5.8 5.8 0 0 0-.009-4.369 5.551 5.551 0 0 0-5.448-3.444zm.091.494a7.4 7.4 0 0 1 .823.046 1.325 1.325 0 0 0 .009 1.005.742.742 0 0 0 1 .11 1.4 1.4 0 0 0 .311-.777 6.575 6.575 0 0 1 1.17.676l-.384.384a1.156 1.156 0 0 0-.137.32.7.7 0 0 0 .832.759 1.324 1.324 0 0 0 .631-.494l.037.027.247.357a5.5 5.5 0 0 1 .4.8l-.256.073a.849.849 0 0 0-.631.4.627.627 0 0 0 .484.859 1.937 1.937 0 0 0 .722-.146 9.658 9.658 0 0 1 .006 1.383 1.394 1.394 0 0 0-1.005.009.743.743 0 0 0-.11 1 1.386 1.386 0 0 0 .777.311 4.168 4.168 0 0 1-.676 1.17 2.213 2.213 0 0 0-.585-.494.7.7 0 0 0-.886.768 1.748 1.748 0 0 0 .5.685H19.1a3.638 3.638 0 0 1-1.179.676l-.009-.009c-.056-.4-.222-1.011-.74-.914a.827.827 0 0 0-.366.128 1.039 1.039 0 0 0-.064 1.115l-.43.046a4.74 4.74 0 0 1-.95-.037c.185-.574.195-1.093-.393-1.252a.694.694 0 0 0-.484.046 1.218 1.218 0 0 0-.43.859 4.9 4.9 0 0 1-1.17-.658 1.787 1.787 0 0 1 .393-.411.733.733 0 0 0 .128-.485.7.7 0 0 0-.9-.567 1.5 1.5 0 0 0-.576.484l-.014-.01-.183-.256a2.989 2.989 0 0 1-.484-.941.905.905 0 0 0 .932-.649.639.639 0 0 0-.064-.3c-.2-.491-.722-.4-1.188-.219a7.517 7.517 0 0 1-.009-1.38h.037c.547.178 1.067.144 1.216-.393a.708.708 0 0 0-.046-.494 1.225 1.225 0 0 0-.859-.429 3.907 3.907 0 0 1 .667-1.17l.065.06c.182.088.263.316.457.4a.7.7 0 0 0 .96-.53.741.741 0 0 0-.311-.685.309.309 0 0 1-.165-.238 4.874 4.874 0 0 1 1.17-.64c.051.546.437 1.235 1.078.813a.948.948 0 0 0 .091-1.124v-.007zm-1.1.247a.291.291 0 0 1 .119.567.3.3 0 0 1-.292-.475.485.485 0 0 1 .178-.087zm2.468 0a.291.291 0 0 1 .119.567c-.355.102-.523-.388-.115-.562zm-4.615 1.234a.291.291 0 1 1-.183.119.44.44 0 0 1 .187-.114zm6.736 0a.29.29 0 1 1-.2.146.408.408 0 0 1 .204-.141zm-7.975 2.144a.29.29 0 1 1 .119.567c-.362.075-.453-.4-.119-.567zm9.194 0a.29.29 0 1 1-.192.155.389.389 0 0 1 .192-.155zm-9.167 2.459a.29.29 0 0 1 .064.576.3.3 0 0 1-.256-.466.421.421 0 0 1 .192-.111zm9.194 0a.29.29 0 1 1-.21.146.407.407 0 0 1 .211-.147zm-7.987 2.138a.29.29 0 1 1-.192.146.409.409 0 0 1 .192-.146zm6.736 0a.289.289 0 1 1-.183.128.434.434 0 0 1 .182-.128zm-4.606 1.234a.29.29 0 1 1-.183.137.435.435 0 0 1 .182-.137zm2.468 0a.29.29 0 0 1 .119.567.293.293 0 0 1-.292-.448.449.449 0 0 1 .172-.119z" data-name="no-image" class="cls-1"/>
</svg>
